Coordinates
version=1
nRows=16
nColumns=24
inDegrees=yes

Units are S.I. units (second, meters, Newtons, ...)
If the header above contains a line with 'inDegrees', this indicates whether rotational values are in degrees (yes) or radians (no).

endheader
time	pelvis_tilt	pelvis_list	pelvis_rotation	pelvis_tx	pelvis_ty	pelvis_tz	hip_flexion_r	hip_adduction_r	hip_rotation_r	knee_angle_r	ankle_angle_r	subtalar_angle_r	mtp_angle_r	hip_flexion_l	hip_adduction_l	hip_rotation_l	knee_angle_l	ankle_angle_l	subtalar_angle_l	mtp_angle_l	lumbar_extension	lumbar_bending	lumbar_rotation
2.950000	9.346851	2.577755	-179.518531	0.294140	0.587807	-1.212640	66.240494	-27.332235	-11.071449	-97.865865	36.256941	8.146527	0.000000	70.219211	-32.965616	-5.097465	-97.458660	35.720603	15.918473	0.000000	-12.387211	1.883936	2.441764
2.955000	9.361786	2.587358	-179.529678	0.294232	0.587753	-1.212563	66.274908	-27.311863	-11.005876	-97.883143	36.199405	8.256705	0.000000	70.260255	-32.974879	-5.088915	-97.484466	35.697233	15.900168	0.000000	-12.384392	1.888345	2.528858
2.960000	9.356162	2.568882	-179.516590	0.294356	0.587665	-1.212471	66.308058	-27.350342	-11.049094	-97.892738	36.185651	8.091328	0.000000	70.268672	-32.942004	-5.095706	-97.501164	35.679739	15.868445	0.000000	-12.408106	1.878253	2.540015
2.965000	9.370779	2.582881	-179.517600	0.294532	0.587637	-1.212491	66.326949	-27.309745	-10.981384	-97.888773	36.136634	8.253031	0.000000	70.310005	-32.954359	-5.086620	-97.486572	35.666490	15.887580	0.000000	-12.412830	1.885472	2.574588
2.970000	9.369798	2.572591	-179.485609	0.294685	0.587646	-1.212496	66.319055	-27.327163	-10.976151	-97.868204	36.182214	8.267312	0.000000	70.316042	-32.917491	-5.088465	-97.461428	35.653896	15.917844	0.000000	-12.425930	1.868710	2.582740
2.975000	9.370495	2.571563	-179.474924	0.294818	0.587690	-1.212526	66.324018	-27.325305	-10.983557	-97.858775	36.176328	8.267475	0.000000	70.321386	-32.912800	-5.095077	-97.430951	35.651048	15.921429	0.000000	-12.436568	1.863242	2.583636
2.980000	9.373052	2.572464	-179.466502	0.294937	0.587766	-1.212495	66.328233	-27.325643	-10.991277	-97.841005	36.158414	8.269421	0.000000	70.325769	-32.902390	-5.100578	-97.411964	35.642002	15.924641	0.000000	-12.441478	1.864253	2.603714
2.985000	9.365973	2.582170	-179.476170	0.295037	0.587878	-1.212470	66.374329	-27.342380	-11.203294	-97.911344	35.766650	7.372765	0.000000	70.322300	-32.912814	-5.100760	-97.401281	35.604260	15.887417	0.000000	-12.449456	1.883103	2.632933
2.990000	9.429525	2.519926	-179.487413	0.295237	0.587906	-1.212306	66.444375	-27.338742	-10.904286	-97.802350	36.063923	8.261736	0.000000	70.512575	-32.821982	-4.633180	-97.210500	35.113964	16.589903	0.000000	-12.389566	1.837500	2.647709
2.995000	9.379395	2.577529	-179.496190	0.295259	0.588112	-1.212446	66.350279	-27.290095	-11.057297	-97.797531	35.945439	7.924831	0.000000	70.311438	-32.933889	-5.152496	-97.353052	35.547013	15.917955	0.000000	-12.437783	1.886413	2.693020
3.000000	9.408368	2.551133	-179.484691	0.295387	0.588261	-1.212403	66.357052	-27.298404	-10.960229	-97.715116	36.056330	8.296254	0.000000	70.302243	-32.898353	-5.205006	-97.295928	35.534246	15.920795	0.000000	-12.402060	1.868406	2.710619
3.005000	9.413394	2.550202	-179.482073	0.295452	0.588472	-1.212365	66.342721	-27.301009	-10.985295	-97.669802	36.036182	8.297951	0.000000	70.280069	-32.892776	-5.234774	-97.246659	35.530593	15.921833	0.000000	-12.387820	1.877802	2.725615
3.010000	9.427390	2.476574	-179.465818	0.295581	0.588735	-1.212196	66.388143	-27.381544	-11.004043	-97.608267	35.960801	8.042858	0.000000	70.386830	-32.773149	-4.786420	-97.023822	35.037735	16.592576	0.000000	-12.372052	1.820875	2.710365
3.015000	9.435014	2.487845	-179.470334	0.295704	0.589002	-1.212215	66.366998	-27.349749	-10.978690	-97.565795	35.908460	8.124965	0.000000	70.376860	-32.784153	-4.802487	-96.966276	34.988813	16.598319	0.000000	-12.367683	1.823370	2.750261
3.020000	9.427897	2.536665	-179.480941	0.295727	0.589371	-1.212388	66.277144	-27.303210	-11.130301	-97.478702	35.870850	7.739811	0.000000	70.180036	-32.892429	-5.358183	-97.053779	35.414641	15.917368	0.000000	-12.339364	1.886493	2.693206
3.025000	9.445213	2.521634	-179.470970	0.295813	0.589733	-1.212375	66.251182	-27.315360	-11.161963	-97.385290	35.813334	7.811687	0.000000	70.154783	-32.872890	-5.372794	-96.993573	35.369471	15.971768	0.000000	-12.311031	1.863984	2.763464
